<svg preserveAspectRatio="none" overflow="visible" style="display: block;" width="42.3338" height="46.6981" viewBox="0 0 42.3338 46.6981" fill="none" xmlns="http://www.w3.org/2000/svg">
<g id="threads-logo-black 1" clip-path="url(#clip0_0_13)">
<path id="Vector" d="M33.4742 21.5945C33.4155 14.825 29.7203 10.7456 23.4791 10.7456C19.3132 10.7456 15.8096 12.617 13.9694 15.5997L18.0027 18.3926C19.0477 16.7551 20.4904 15.3952 23.1401 15.3952C26.1284 15.3952 27.674 17.0473 28.1155 20.1176C26.6729 19.8984 25.2302 19.7814 23.7437 19.7814C15.6766 19.7814 11.8788 23.4077 11.8788 28.2031C11.8788 32.9985 15.6766 35.9523 21.2708 35.9523C27.4094 35.9523 31.0747 31.844 32.5764 26.7555C34.1368 27.4573 35.2114 29.0947 35.2114 31.5513C35.2114 38.1309 27.5715 41.7131 21.0944 41.7131C11.5408 41.7131 5.29916 35.4844 5.29916 25.3524C5.29916 12.939 13.5574 4.9852 24.6567 4.9852C32.1054 4.9852 35.7854 8.2312 38.2879 12.5881L42.4099 9.72234C39.6862 4.07843 33.6067 0.0430586 24.4798 0.0430586C9.93561 0.0430586 0.0435077 10.2925 0.0435077 25.1621C0.0435077 38.7598 9.72964 46.6549 21.2708 46.6549C30.8096 46.6549 40.4519 41.1283 40.4519 31.6683C40.4519 26.7266 37.5961 23.4512 33.4742 21.5945ZM21.0939 31.0248C18.9891 31.0248 17.1341 30.0304 17.1341 28.2031C17.1341 25.3226 20.6963 24.4456 24.1852 24.4456C25.5101 24.4456 26.8054 24.5332 27.9534 24.7818C27.1291 28.5246 24.6853 31.0252 21.0935 31.0252L21.0939 31.0248Z" fill="black"/>
</g>
<defs>
<clipPath id="clip0_0_13">
<rect width="42.3338" height="46.6981" fill="white"/>
</clipPath>
</defs>
</svg>
